<?xml version="1.0" standalone="no"?>
<!DOCTYPE svg PUBLIC "-//W3C//DTD SVG 20010904//EN"
 "http://www.w3.org/TR/2001/REC-SVG-20010904/DTD/svg10.dtd">
<svg version="1.0" xmlns="http://www.w3.org/2000/svg"
 width="5000.000000pt" height="2813.000000pt" viewBox="0 0 5000.000000 2813.000000"
 preserveAspectRatio="xMidYMid meet">
<metadata>
Created by potrace 1.16, written by Peter Selinger 2001-2019
</metadata>
<g transform="translate(0.000000,2813.000000) scale(0.100000,-0.100000)"
fill="#000000" stroke="none">
<path d="M70 14065 l0 -14065 24930 0 24930 0 0 14065 0 14065 -24930 0
-24930 0 0 -14065z m30398 1308 l-3 -4438 -5465 0 -5465 0 -3 4438 -2 4437
5470 0 5470 0 -2 -4437z m-9525 -5819 c183 -47 314 -175 356 -347 6 -26 9 -52
6 -58 -4 -5 -60 -9 -126 -9 l-119 0 -24 53 c-48 109 -123 152 -253 145 -88 -4
-138 -24 -189 -75 -70 -69 -104 -177 -104 -323 0 -146 33 -241 107 -311 66
-64 96 -74 208 -74 114 0 158 16 213 79 26 29 62 116 62 148 0 4 -57 9 -127
10 l-128 3 -3 103 -3 102 253 -2 253 -3 0 -320 0 -320 -87 -3 -86 -3 -11 51
c-6 28 -11 57 -11 64 0 7 -20 -7 -45 -30 -115 -111 -284 -141 -470 -83 -187
57 -324 205 -375 405 -25 98 -27 269 -4 363 54 221 205 379 414 435 74 20 217
20 293 0z m4042 1 c192 -49 331 -179 398 -375 42 -120 49 -287 18 -410 -30
-121 -74 -203 -152 -282 -248 -253 -701 -212 -897 82 -65 97 -93 193 -99 340
-5 106 -2 139 15 208 58 226 204 381 412 436 73 20 231 20 305 1z m3812 -17
c311 -110 462 -486 338 -842 -60 -171 -194 -299 -370 -352 -83 -25 -267 -25
-350 0 -269 81 -436 345 -411 651 24 291 184 497 432 560 93 23 270 15 361
-17z m-11397 -593 l0 -595 -135 0 -135 0 0 595 0 595 135 0 135 0 0 -595z
m725 218 c71 -208 133 -389 138 -403 10 -26 4 -43 219 623 l51 157 189 0 188
0 0 -595 0 -596 -127 3 -128 3 -5 397 -5 396 -99 -286 c-54 -158 -117 -338
-138 -399 l-40 -113 -103 0 -103 0 -40 113 c-22 61 -84 240 -138 396 l-99 283
-5 -393 -5 -394 -127 -3 -128 -3 0 596 0 595 189 0 189 0 127 -377z m1625 320
c122 -324 420 -1123 420 -1128 0 -3 -62 -5 -138 -5 l-137 0 -44 130 -44 130
-221 0 -221 0 -45 -130 -44 -130 -134 0 c-125 0 -134 1 -130 18 3 10 103 278
223 595 l218 577 138 0 138 0 21 -57z m2680 -53 l0 -110 -315 0 -315 0 0 -125
0 -125 285 0 285 0 0 -105 0 -105 -285 0 -285 0 0 -140 0 -140 318 -2 317 -3
3 -112 3 -113 -456 0 -455 0 0 595 0 595 450 0 450 0 0 -110z m1145 -275 l240
-386 3 386 2 385 130 0 130 0 0 -595 0 -596 -137 3 -137 3 -240 387 -241 388
-3 -390 -2 -390 -125 0 -125 0 0 595 0 595 133 0 132 0 240 -385z m2905 275
l0 -110 -180 0 -180 0 0 -485 0 -486 -132 3 -133 3 -3 483 -2 482 -175 0 -175
0 0 110 0 110 490 0 490 0 0 -110z m1430 0 l0 -110 -285 0 -285 0 0 -135 0
-135 248 -2 247 -3 0 -100 0 -100 -247 -3 -248 -2 0 -245 0 -245 -135 0 -135
0 0 595 0 595 420 0 420 0 0 -110z m1702 -312 l3 -423 28 -48 c43 -72 88 -92
212 -92 123 0 167 18 205 86 l25 44 3 428 3 427 135 0 135 0 -3 -442 c-3 -437
-3 -444 -26 -501 -49 -120 -137 -201 -267 -244 -71 -23 -96 -26 -215 -26 -120
0 -144 3 -215 26 -138 46 -223 129 -267 257 -21 62 -22 82 -26 498 l-3 432
135 0 135 0 3 -422z m1479 29 l244 -393 3 393 2 393 125 0 125 0 0 -595 0
-596 -136 3 -137 3 -241 388 -241 388 -3 -390 -2 -391 -125 0 -125 0 0 595 0
595 133 0 134 0 244 -393z m1393 377 c179 -46 309 -181 362 -375 24 -87 25
-297 1 -393 -46 -186 -152 -310 -322 -377 -58 -23 -71 -24 -387 -27 l-328 -3
0 595 0 596 306 0 c247 0 318 -3 368 -16z"/>
<path d="M20230 15370 l0 -3750 4770 0 4770 0 0 3750 0 3750 -4770 0 -4770 0
0 -3750z m7990 3065 c507 -77 880 -507 880 -1015 0 -467 -317 -874 -775 -997
-88 -23 -118 -26 -255 -26 -134 0 -168 3 -251 26 -249 66 -461 217 -602 428
-67 101 -99 170 -133 287 -104 360 -2 745 269 1013 229 227 550 333 867 284z
m-3900 -2379 c745 -932 1359 -1695 1364 -1695 5 -1 312 226 683 504 370 278
676 505 680 505 12 -1 2052 -3067 2046 -3074 -9 -9 -8181 -7 -8186 2 -4 5
1993 5349 2033 5440 6 13 13 21 18 18 4 -2 617 -767 1362 -1700z"/>
<path d="M24705 9316 c-132 -61 -192 -193 -183 -401 8 -171 56 -268 166 -333
43 -25 56 -27 147 -27 91 0 104 2 147 27 105 62 156 161 165 320 12 209 -52
354 -182 414 -71 34 -189 33 -260 0z"/>
<path d="M28479 9327 c-86 -32 -147 -101 -178 -202 -70 -224 -9 -458 140 -540
49 -27 62 -30 149 -30 87 0 100 3 149 30 109 60 166 184 165 360 0 175 -53
294 -158 359 -43 27 -58 31 -140 33 -59 2 -104 -1 -127 -10z"/>
<path d="M19513 9027 l-71 -202 140 -3 c78 -1 143 -1 145 1 4 5 -126 388 -136
399 -3 4 -38 -84 -78 -195z"/>
<path d="M32080 8950 l0 -370 143 0 c78 0 159 5 179 10 139 39 217 210 191
420 -18 141 -67 225 -156 271 -43 22 -162 39 -279 39 l-78 0 0 -370z"/>
</g>
</svg>
